<?xml version="1.0" encoding="UTF-8" standalone="no"?>
<!-- Generator: Adobe Illustrator 19.1.0, SVG Export Plug-In . SVG Version: 6.00 Build 0)  -->

<svg
   xmlns:dc="http://purl.org/dc/elements/1.1/"
   xmlns:cc="http://creativecommons.org/ns#"
   xmlns:rdf="http://www.w3.org/1999/02/22-rdf-syntax-ns#"
   xmlns:svg="http://www.w3.org/2000/svg"
   xmlns="http://www.w3.org/2000/svg"
   xmlns:sodipodi="http://sodipodi.sourceforge.net/DTD/sodipodi-0.dtd"
   xmlns:inkscape="http://www.inkscape.org/namespaces/inkscape"
   version="1.1"
   id="Ebene_1"
   x="0px"
   y="0px"
   viewBox="-412 290.3 16 16"
   style="enable-background:new -412 290.3 16 16;"
   xml:space="preserve"
   sodipodi:docname="loop_end-icon.svg"
   inkscape:version="0.92.2 (5c3e80d, 2017-08-06)"
   inkscape:export-filename="C:\DEV\GIT\master\knime-streaming\org.knime.kafka\src\org\knime\kafka\node\looper\loop_end-icon.png"
   inkscape:export-xdpi="96"
   inkscape:export-ydpi="96"><metadata
     id="metadata17"><rdf:RDF><cc:Work
         rdf:about=""><dc:format>image/svg+xml</dc:format><dc:type
           rdf:resource="http://purl.org/dc/dcmitype/StillImage" /></cc:Work></rdf:RDF></metadata><defs
     id="defs15" /><sodipodi:namedview
     pagecolor="#ffffff"
     bordercolor="#666666"
     borderopacity="1"
     objecttolerance="10"
     gridtolerance="10"
     guidetolerance="10"
     inkscape:pageopacity="0"
     inkscape:pageshadow="2"
     inkscape:window-width="927"
     inkscape:window-height="1048"
     id="namedview13"
     showgrid="true"
     inkscape:zoom="1"
     inkscape:cx="8"
     inkscape:cy="8"
     inkscape:window-x="984"
     inkscape:window-y="0"
     inkscape:window-maximized="0"
     inkscape:current-layer="Ebene_1"><inkscape:grid
       type="xygrid"
       id="grid832" /></sodipodi:namedview><style
     type="text/css"
     id="style2">
	.st0{fill:none;}
	.st1{fill:#E64E4F;}
</style><g
     id="g8"><path
       class="st0"
       d="M-404.6,292.4c-3.3,0-5.9,2.6-5.9,5.9c0,3.2,2.6,5.9,5.9,5.9c3.2,0,5.9-2.6,5.9-5.9S-401.4,292.4-404.6,292.4z   "
       id="path4" /><path
       class="st1"
       d="M-404.6,290.9c-4.1,0-7.4,3.3-7.4,7.4s3.3,7.4,7.4,7.4s7.4-3.3,7.4-7.4S-400.5,290.9-404.6,290.9z    M-404.6,304.2c-3.2,0-5.9-2.6-5.9-5.9c0-3.2,2.6-5.9,5.9-5.9c3.2,0,5.9,2.6,5.9,5.9C-398.7,301.5-401.4,304.2-404.6,304.2z"
       id="path6" /></g><rect
     x="-400.8"
     y="295.9"
     width="4.8"
     height="4.8"
     id="rect10" /><g
     id="g4"
     transform="matrix(0.02050676,0,0,0.02050685,-408.33131,293.70993)"><path
       d="m 237.61686,249.26774 c -18.59017,0 -35.25655,8.23614 -46.66953,21.20309 L 161.7022,249.76736 c 3.10449,-8.54739 4.88702,-17.72533 4.88702,-27.33167 0,-9.4398 -1.72051,-18.46383 -4.72278,-26.88489 l 29.17966,-20.4841 c 11.41184,12.90148 28.03457,21.09283 46.57076,21.09283 34.31246,0 62.23218,-27.91513 62.23218,-62.23218 0,-34.317049 -27.91972,-62.232171 -62.23218,-62.232171 -34.31245,0 -62.23217,27.915122 -62.23217,62.232171 0,6.14236 0.92802,12.06535 2.59339,17.67479 L 148.7789,172.09659 C 136.58147,156.96465 119.01923,146.39928 99.009473,143.1742 v -35.19108 c 28.189617,-5.9207 49.429457,-30.966782 49.429457,-60.894136 0,-34.317052 -27.91971,-62.232174 -62.232167,-62.232174 -34.312458,0 -62.232174,27.915122 -62.232174,62.232174 0,29.526515 20.689694,54.263646 48.315386,60.606996 v 35.6482 c -37.701782,6.61786 -66.4656712,39.52106 -66.4656712,79.09151 0,39.7634 29.0487252,72.7872 67.0227102,79.17994 v 37.64206 c -27.908231,6.13432 -48.872425,31.02306 -48.872425,60.75057 0,34.31705 27.919716,62.23217 62.232174,62.23217 34.312457,0 62.232167,-27.91512 62.232167,-62.23217 0,-29.72751 -20.96419,-54.61625 -48.872418,-60.75057 v -37.6432 C 119.18232,298.3113 136.42182,287.95497 148.49406,273.1584 l 29.44038,20.83786 c -1.63437,5.5589 -2.54975,11.42332 -2.54975,17.50366 0,34.31705 27.91972,62.23217 62.23217,62.23217 34.31246,0 62.23218,-27.91512 62.23218,-62.23217 0,-34.31705 -27.91972,-62.23218 -62.23218,-62.23218 z m 0,-145.51353 c 16.63882,0 30.172,13.53892 30.172,30.17314 0,16.63422 -13.53318,30.17199 -30.172,30.17199 -16.63881,0 -30.17199,-13.53777 -30.17199,-30.17199 0,-16.63422 13.53318,-30.17314 30.17199,-30.17314 z M 56.033622,47.088984 c 0,-16.63422 13.534327,-30.171992 30.173141,-30.171992 16.638817,0 30.171987,13.537772 30.171987,30.171992 0,16.63422 -13.53317,30.171991 -30.171987,30.171991 -16.638814,0 -30.173141,-13.537771 -30.173141,-30.171991 z M 116.37875,400.00826 c 0,16.63422 -13.53317,30.17199 -30.171987,30.17199 -16.638814,0 -30.173141,-13.53777 -30.173141,-30.17199 0,-16.63422 13.534327,-30.172 30.173141,-30.172 16.638817,0 30.171987,13.53778 30.171987,30.172 z M 86.204466,264.51568 c -23.206133,0 -42.084588,-18.87501 -42.084588,-42.07999 0,-23.20613 18.878455,-42.08459 42.084588,-42.08459 23.204984,0 42.083434,18.87846 42.083434,42.08459 0,23.20498 -18.87845,42.07999 -42.083434,42.07999 z m 151.412394,77.15738 c -16.63881,0 -30.17199,-13.53892 -30.17199,-30.17314 0,-16.63422 13.53318,-30.17199 30.17199,-30.17199 16.63882,0 30.172,13.53777 30.172,30.17199 0,16.63422 -13.53318,30.17314 -30.172,30.17314 z"
       id="path6-3"
       inkscape:connector-curvature="0"
       style="fill:#000000" /></g></svg>